#N canvas 37 22 983 728 10;
#X obj 15 606 dac~;
#X obj 6 576 master_;
#N canvas 0 22 450 300 (subpatch) 0;
#X array \$0-spectrum.L 512 float 0;
#X coords 0 1 512 0 400 140 1;
#X restore 549 415 graph;
#N canvas 0 22 450 300 (subpatch) 0;
#X array \$0-spectrum.R 512 float 0;
#X coords 0 1 512 0 400 140 1;
#X restore 549 575 graph;
#X obj 41 57 stratum_;
#X obj 6 646 spectrum.mmb~ \$0-spectrum.L;
#X obj 45 670 spectrum.mmb~ \$0-spectrum.R;
#X obj 41 137 throw~ master.L;
#X obj 86 112 throw~ master.R;
#X connect 1 0 0 0;
#X connect 1 0 5 0;
#X connect 1 1 0 1;
#X connect 1 1 6 0;
#X connect 4 0 7 0;
#X connect 4 1 8 0;
