#N canvas 155 22 1402 826 10;
#X obj 25 696 dac~;
#N canvas 539 136 413 550 sequencer 0;
#X obj 20 58 tgl 15 0 empty empty empty 17 7 0 10 -262144 -1 -1 0 1
;
#X obj 20 20 inlet;
#X obj 20 132 f;
#X obj 60 132 + 1;
#X obj 20 168 mod 8;
#X obj 20 198 hradio 15 1 0 8 empty empty empty 0 -8 0 10 -262144 -1
-1 0;
#X obj 20 90 metro 200;
#X obj 20 230 select 0 1 2 3 4 5 6 7;
#X obj 20 399 outlet;
#X obj 36 378 outlet;
#X obj 52 357 outlet;
#X obj 68 336 outlet;
#X obj 84 315 outlet;
#X obj 100 295 outlet;
#X obj 116 275 outlet;
#X obj 132 255 outlet;
#X obj 71 20 inlet;
#X connect 0 0 6 0;
#X connect 1 0 0 0;
#X connect 2 0 3 0;
#X connect 2 0 4 0;
#X connect 3 0 2 1;
#X connect 4 0 5 0;
#X connect 5 0 7 0;
#X connect 6 0 2 0;
#X connect 7 0 8 0;
#X connect 7 1 9 0;
#X connect 7 2 10 0;
#X connect 7 3 11 0;
#X connect 7 4 12 0;
#X connect 7 5 13 0;
#X connect 7 6 14 0;
#X connect 7 7 15 0;
#X connect 16 0 6 1;
#X restore 9 78 pd sequencer;
#X obj 9 41 bng 15 250 50 0 empty empty empty 17 7 0 10 -262144 -1
-1;
#X floatatom 82 41 5 0 0 0 - - -;
#X obj 16 666 master_;
#N canvas 677 24 658 485 messages 0;
#X obj 52 81 loadbang;
#X msg 52 149 1 97;
#X msg 92 149 2 115;
#X msg 142 149 3 100;
#X msg 232 149 5 103;
#X msg 282 149 6 104;
#X msg 332 149 7 106;
#X msg 382 149 8 107;
#X obj 52 108 t b b b b b b b b;
#X msg 192 149 4 102;
#X msg 48 237 \; stratum-\$1 key-number \$2;
#X connect 0 0 8 0;
#X connect 1 0 10 0;
#X connect 2 0 10 0;
#X connect 3 0 10 0;
#X connect 4 0 10 0;
#X connect 5 0 10 0;
#X connect 6 0 10 0;
#X connect 7 0 10 0;
#X connect 8 0 1 0;
#X connect 8 1 2 0;
#X connect 8 2 3 0;
#X connect 8 3 9 0;
#X connect 8 4 4 0;
#X connect 8 5 5 0;
#X connect 8 6 6 0;
#X connect 8 7 7 0;
#X connect 9 0 10 0;
#X restore 555 88 pd messages;
#X obj 53 271 r stratum-1;
#X obj 206 270 r stratum-2;
#X obj 368 270 r stratum-3;
#X obj 521 269 r stratum-4;
#X obj 675 269 r stratum-5;
#X obj 828 268 r stratum-6;
#X obj 990 268 r stratum-7;
#X obj 1143 267 r stratum-8;
#X obj 324 297 stratum_;
#X obj 9 298 stratum_;
#X obj 162 297 stratum_;
#X obj 477 296 stratum_;
#X obj 631 296 stratum_;
#X obj 784 295 stratum_;
#X obj 946 295 stratum_;
#X obj 1099 294 stratum_;
#X connect 1 0 15 0;
#X connect 1 1 16 0;
#X connect 1 2 14 0;
#X connect 1 3 17 0;
#X connect 1 4 18 0;
#X connect 1 5 19 0;
#X connect 1 6 20 0;
#X connect 1 7 21 0;
#X connect 2 0 1 0;
#X connect 3 0 1 1;
#X connect 4 0 0 0;
#X connect 4 1 0 1;
#X connect 6 0 15 1;
#X connect 7 0 16 1;
#X connect 8 0 14 1;
#X connect 9 0 17 1;
#X connect 10 0 18 1;
#X connect 11 0 19 1;
#X connect 12 0 20 1;
#X connect 13 0 21 1;
