#N canvas 551 198 736 665 10;
#X obj 669 632 dac~;
#X obj 265 39 vsl 15 128 -100 12 0 0 empty empty Volume 0 -9 0 10 -262144
-1 -1 0 1;
#X obj 660 602 master_;
#X msg 265 176 volume \$1;
#X obj 41 127 throw~ master.L;
#X obj 87 102 throw~ master.R;
#N canvas 35 22 1202 423 step 0;
#X obj 13 150 pair_;
#X obj 990 388 outlet~;
#X obj 13 177 channel_mono_;
#X obj 1123 391 outlet~;
#X obj 990 358 catch~ \$0-left;
#X obj 1086 358 catch~ \$0-right;
#X obj 13 207 throw~ \$0-left;
#X obj 88 231 throw~ \$0-right;
#X obj 137 147 pair_;
#X obj 137 174 channel_mono_;
#X obj 137 204 throw~ \$0-left;
#X obj 212 228 throw~ \$0-right;
#X obj 282 145 pair_;
#X obj 282 172 channel_mono_;
#X obj 282 202 throw~ \$0-left;
#X obj 357 226 throw~ \$0-right;
#X obj 425 144 pair_;
#X obj 425 171 channel_mono_;
#X obj 425 201 throw~ \$0-left;
#X obj 500 225 throw~ \$0-right;
#X floatatom 15 111 5 0 0 0 - - -;
#X floatatom 72 111 5 0 0 0 - - -;
#X floatatom 118 112 5 0 0 0 - - -;
#X floatatom 175 112 5 0 0 0 - - -;
#X obj 15 7 loadbang;
#X msg 15 28 440;
#X msg 72 88 1;
#X msg 175 87 2;
#X floatatom 282 111 5 0 0 0 - - -;
#X floatatom 339 111 5 0 0 0 - - -;
#X msg 339 86 3;
#X floatatom 422 114 5 0 0 0 - - -;
#X floatatom 479 114 5 0 0 0 - - -;
#X msg 479 89 4;
#X connect 0 0 2 0;
#X connect 2 0 6 0;
#X connect 2 1 7 0;
#X connect 4 0 1 0;
#X connect 5 0 3 0;
#X connect 8 0 9 0;
#X connect 9 0 10 0;
#X connect 9 1 11 0;
#X connect 12 0 13 0;
#X connect 13 0 14 0;
#X connect 13 1 15 0;
#X connect 16 0 17 0;
#X connect 17 0 18 0;
#X connect 17 1 19 0;
#X connect 20 0 0 0;
#X connect 21 0 0 1;
#X connect 22 0 8 0;
#X connect 23 0 8 1;
#X connect 24 0 25 0;
#X connect 24 0 26 0;
#X connect 24 0 27 0;
#X connect 24 0 30 0;
#X connect 24 0 33 0;
#X connect 25 0 20 0;
#X connect 25 0 22 0;
#X connect 25 0 28 0;
#X connect 25 0 31 0;
#X connect 26 0 21 0;
#X connect 27 0 23 0;
#X connect 28 0 12 0;
#X connect 29 0 12 1;
#X connect 30 0 29 0;
#X connect 31 0 16 0;
#X connect 32 0 16 1;
#X connect 33 0 32 0;
#X restore 37 66 pd step;
#X connect 1 0 3 0;
#X connect 2 0 0 0;
#X connect 2 1 0 1;
#X connect 6 0 4 0;
#X connect 6 1 5 0;
