#N canvas 37 22 983 728 10;
#X obj 15 606 dac~;
#X obj 6 576 master_;
#X obj 9 8 stratum_;
#X obj 9 306 throw~ master.L;
#X obj 54 281 throw~ master.R;
#X connect 1 0 0 0;
#X connect 1 1 0 1;
#X connect 2 0 3 0;
#X connect 2 1 4 0;
