#N canvas 130 96 624 601 10;
#X obj 83 40 inlet~;
#X msg 135 65 \$1 10;
#X obj 135 89 line~;
#X obj 83 121 *~;
#N canvas 386 167 450 300 mute 0;
#X obj 210 83 inlet~;
#X obj 210 234 outlet~;
#X obj 268 119 r \$0-mute;
#X obj 210 187 *~ 1;
#X connect 0 0 3 0;
#X connect 2 0 3 1;
#X connect 3 0 1 0;
#X restore 83 147 pd mute;
#X obj 83 256 pan_;
#X obj 114 229 line~;
#X msg 114 207 \$1 10;
#X obj 114 185 r \$0-pan;
#X obj 135 40 r \$0-volume;
#X obj 264 42 inlet;
#N canvas 462 260 627 438 messages 0;
#X obj 16 12 inlet;
#X obj 6 160 clip -100 12;
#X obj 96 185 clip -100 100;
#X obj 201 154 > 0;
#X obj 72 16 loadbang;
#X obj 6 229 s \$0-volume;
#X obj 96 254 s \$0-pan;
#X obj 201 181 s \$0-mute;
#X obj 6 205 dbtorms;
#X obj 15 183 + 100;
#X msg 72 45 volume 0 \, pan 0 \, solo 0 \, mute 1;
#X obj 96 208 + 100;
#X obj 96 231 / 200;
#X obj 26 92 route volume pan mute throw;
#X obj 277 153 > 0;
#X obj 277 181 s \$0-throw;
#X connect 0 0 13 0;
#X connect 1 0 9 0;
#X connect 2 0 11 0;
#X connect 3 0 7 0;
#X connect 4 0 10 0;
#X connect 8 0 5 0;
#X connect 9 0 8 0;
#X connect 10 0 13 0;
#X connect 11 0 12 0;
#X connect 12 0 6 0;
#X connect 13 0 1 0;
#X connect 13 1 2 0;
#X connect 13 2 3 0;
#X connect 13 3 14 0;
#X connect 14 0 15 0;
#X restore 264 76 pd messages;
#X obj -61 336 throw~ master.L;
#X obj 179 335 throw~ master.R;
#X obj 43 295 outlet~;
#X obj 110 295 outlet~;
#X obj -9 295 *~ 0;
#X obj 176 296 *~ 0;
#X obj 216 262 r \$0-throw;
#X connect 0 0 3 0;
#X connect 1 0 2 0;
#X connect 2 0 3 1;
#X connect 3 0 4 0;
#X connect 4 0 5 0;
#X connect 5 0 14 0;
#X connect 5 0 16 0;
#X connect 5 1 15 0;
#X connect 5 1 17 0;
#X connect 6 0 5 1;
#X connect 7 0 6 0;
#X connect 8 0 7 0;
#X connect 9 0 1 0;
#X connect 10 0 11 0;
#X connect 16 0 12 0;
#X connect 17 0 13 0;
#X connect 18 0 17 1;
#X connect 18 0 16 1;
