#N canvas 34 39 734 682 10;
#X obj 37 159 *~;
#X obj 190 159 *~;
#X obj 260 67 r \$0-volume;
#X obj 260 111 line~;
#X msg 260 89 \$1 20;
#N canvas 0 22 450 300 mute 0;
#X obj 210 83 inlet~;
#X obj 210 234 outlet~;
#X obj 210 187 *~ 1;
#X obj 280 83 inlet~;
#X obj 280 234 outlet~;
#X obj 338 119 r \$0-mute;
#X obj 280 187 *~ 1;
#X connect 0 0 2 0;
#X connect 2 0 1 0;
#X connect 3 0 6 0;
#X connect 5 0 6 1;
#X connect 5 0 2 1;
#X connect 6 0 4 0;
#X restore 98 353 pd mute;
#X msg 74 206 \$1 20;
#X obj 74 228 line~;
#X msg 237 206 \$1 20;
#X obj 237 228 line~;
#X obj 37 263 pan_;
#X obj 190 261 pan_;
#X obj 237 184 r \$0-pan.r;
#X obj 74 184 r \$0-pan.l;
#X obj 37 21 inlet~;
#X obj 190 21 inlet~;
#X obj 365 40 inlet;
#N canvas 62 484 450 300 messages 0;
#X obj 177 59 inlet;
#X restore 365 70 pd messages;
#X connect 0 0 10 0;
#X connect 1 0 11 0;
#X connect 2 0 4 0;
#X connect 3 0 1 1;
#X connect 3 0 0 1;
#X connect 4 0 3 0;
#X connect 6 0 7 0;
#X connect 7 0 10 1;
#X connect 8 0 9 0;
#X connect 9 0 11 1;
#X connect 10 0 5 0;
#X connect 10 1 5 1;
#X connect 11 0 5 0;
#X connect 11 1 5 1;
#X connect 12 0 8 0;
#X connect 13 0 6 0;
#X connect 14 0 0 0;
#X connect 15 0 1 0;
#X connect 16 0 17 0;
