#N canvas 197 22 1014 687 10;
#X obj 373 40 inlet~;
#X msg 425 65 \$1 10;
#X obj 425 89 line~;
#X obj 373 121 *~;
#N canvas 386 167 450 300 mute 0;
#X obj 210 83 inlet~;
#X obj 210 234 outlet~;
#X obj 268 119 r \$0-mute;
#X obj 210 187 *~ 1;
#X connect 0 0 3 0;
#X connect 2 0 3 1;
#X connect 3 0 1 0;
#X restore 373 147 pd mute;
#X obj 373 256 pan_;
#X obj 404 229 line~;
#X msg 404 207 \$1 10;
#X obj 404 185 r \$0-pan;
#X obj 425 40 r \$0-volume;
#X obj 554 42 inlet;
#N canvas 445 22 627 438 messages 0;
#X obj 26 12 inlet;
#X obj 6 160 clip -100 12;
#X obj 116 155 clip -100 100;
#X obj 221 144 > 0;
#X obj 72 16 loadbang;
#X obj 6 183 + 100;
#X obj 26 92 route volume pan mute throw;
#X obj 327 143 > 0;
#X obj 327 171 s \$0-throw;
#X obj 6 206 dbtofad;
#X obj 6 229 s \$0-volume.gui.r;
#X obj 116 184 s \$0-pan.gui.r;
#X obj 221 171 s \$0-mute.gui.r;
#X msg 72 45 volume -18 \, pan 0 \, solo 0 \, mute 1;
#X connect 0 0 6 0;
#X connect 1 0 5 0;
#X connect 2 0 11 0;
#X connect 3 0 12 0;
#X connect 4 0 13 0;
#X connect 5 0 9 0;
#X connect 6 0 1 0;
#X connect 6 1 2 0;
#X connect 6 2 3 0;
#X connect 6 3 7 0;
#X connect 7 0 8 0;
#X connect 9 0 10 0;
#X connect 13 0 6 0;
#X restore 554 69 pd messages;
#X obj 333 295 outlet~;
#X obj 400 295 outlet~;
#N canvas 397 22 549 696 gui 0;
#X obj 62 519 change;
#X msg 124 490 set \$1;
#X msg 62 545 set \$1;
#X obj 61 134 trigger f f;
#X obj 61 40 r \$0-volume.gui;
#X obj 61 341 s \$0-volume;
#X obj 62 385 r \$0-volume;
#X obj 62 571 s \$0-volume.gui.r;
#X obj 222 519 change;
#X msg 284 490 set \$1;
#X msg 222 545 set \$1;
#X obj 221 134 trigger f f;
#X obj 221 40 r \$0-mute.gui;
#X obj 221 341 s \$0-mute;
#X obj 222 385 r \$0-mute;
#X obj 222 571 s \$0-mute.gui.r;
#X obj 352 519 change;
#X msg 414 490 set \$1;
#X msg 352 545 set \$1;
#X obj 351 134 trigger f f;
#X obj 351 40 r \$0-pan.gui;
#X obj 221 276 == 0;
#X obj 222 434 == 0;
#X obj 351 341 s \$0-pan;
#X obj 352 385 r \$0-pan;
#X obj 351 219 + 100;
#X obj 351 253 / 200;
#X obj 352 420 * 200;
#X obj 352 455 - 100;
#N canvas 0 22 450 300 gui 0;
#X obj 113 73 inlet;
#X obj 113 114 sel 0 1;
#X msg 113 167 color 0 0 13;
#X msg 177 202 color 13 13 3;
#X obj 136 245 s \$0-mute.gui.r;
#X connect 0 0 1 0;
#X connect 1 0 2 0;
#X connect 1 1 3 0;
#X connect 2 0 4 0;
#X connect 3 0 4 0;
#X restore 231 168 pd gui;
#N canvas 490 22 450 300 gui 0;
#X obj 113 73 inlet;
#X obj 136 245 s \$0-pan.gui.r;
#X msg 120 155 label pan:\$1;
#X obj 115 117 i;
#X connect 0 0 3 0;
#X connect 2 0 1 0;
#X connect 3 0 2 0;
#X restore 361 168 pd gui;
#X obj 61 203 dbtorms;
#X obj 61 172 fadtodb;
#X obj 62 444 dbtofad;
#X obj 62 417 rmstodb;
#X obj 352 571 s \$0-pan.gui.r;
#X connect 0 0 2 0;
#X connect 1 0 0 0;
#X connect 2 0 7 0;
#X connect 3 0 32 0;
#X connect 3 1 1 0;
#X connect 4 0 3 0;
#X connect 6 0 34 0;
#X connect 8 0 10 0;
#X connect 9 0 8 0;
#X connect 10 0 15 0;
#X connect 11 0 21 0;
#X connect 11 0 29 0;
#X connect 11 1 9 0;
#X connect 12 0 11 0;
#X connect 14 0 22 0;
#X connect 16 0 18 0;
#X connect 17 0 16 0;
#X connect 18 0 35 0;
#X connect 19 0 25 0;
#X connect 19 0 30 0;
#X connect 19 1 17 0;
#X connect 20 0 19 0;
#X connect 21 0 13 0;
#X connect 22 0 8 0;
#X connect 24 0 27 0;
#X connect 25 0 26 0;
#X connect 26 0 23 0;
#X connect 27 0 28 0;
#X connect 28 0 16 0;
#X connect 31 0 5 0;
#X connect 32 0 31 0;
#X connect 33 0 0 0;
#X connect 34 0 33 0;
#X restore 554 96 pd gui;
#X obj 96 30 tgl 16 0 \$0-mute.gui \$0-mute.gui.r M 5 8 0 10 -258699
-258699 -261689 1 1;
#X obj 33 56 hsl 77 16 0 117 0 0 \$0-volume.gui \$0-volume.gui.r volume
7 8 0 10 -262144 -1 -1 3656 1;
#X obj 33 30 hsl 51 16 -100 100 0 0 \$0-pan.gui \$0-pan.gui.r pan:-76
4 8 0 10 -262144 -1 -1 600 1;
#X connect 0 0 3 0;
#X connect 1 0 2 0;
#X connect 2 0 3 1;
#X connect 3 0 4 0;
#X connect 4 0 5 0;
#X connect 5 0 12 0;
#X connect 5 1 13 0;
#X connect 6 0 5 1;
#X connect 7 0 6 0;
#X connect 8 0 7 0;
#X connect 9 0 1 0;
#X connect 10 0 11 0;
#X coords 0 -1 1 1 103 61 2 20 20;
