#N canvas 91 139 723 494 10;
#X obj 27 149 *~;
#X obj 180 149 *~;
#X obj 250 57 r \$0-volume;
#X obj 250 101 line~;
#X msg 250 79 \$1 20;
#N canvas 0 22 450 300 mute 0;
#X obj 210 83 inlet~;
#X obj 210 234 outlet~;
#X obj 210 187 *~ 1;
#X obj 280 83 inlet~;
#X obj 280 234 outlet~;
#X obj 338 119 r \$0-mute;
#X obj 280 187 *~ 1;
#X connect 0 0 2 0;
#X connect 2 0 1 0;
#X connect 3 0 6 0;
#X connect 5 0 6 1;
#X connect 5 0 2 1;
#X connect 6 0 4 0;
#X restore 88 343 pd mute;
#X msg 64 196 \$1 20;
#X obj 64 218 line~;
#X msg 227 196 \$1 20;
#X obj 227 218 line~;
#X obj 88 430 outlet~;
#X obj 141 430 outlet~;
#X obj 54 7 inlet~;
#X obj 196 7 inlet~;
#X obj 403 13 inlet;
#N canvas 609 213 534 311 messages 0;
#X obj 18 11 inlet;
#X obj 18 60 route volume leftpan mute rightpan;
#X obj 79 11 loadbang;
#X obj 8 102 clip -100 12;
#X obj 8 125 + 100;
#X obj 8 146 dbtorms;
#X obj 8 168 s \$0-volume;
#X obj 94 107 clip -100 100;
#X obj 251 102 clip -100 100;
#X obj 185 102 > 0;
#X obj 185 125 s \$0-mute;
#X msg 79 33 volume 0 \, leftpan -100 \, mute 1 \, rightpan 100;
#X obj 94 129 + 100;
#X obj 94 151 / 200;
#X obj 251 124 + 100;
#X obj 251 146 / 200;
#X obj 94 174 s \$0-pan.l;
#X obj 251 168 s \$0-pan.l;
#X connect 0 0 1 0;
#X connect 1 0 3 0;
#X connect 1 1 7 0;
#X connect 1 2 9 0;
#X connect 1 3 8 0;
#X connect 2 0 11 0;
#X connect 3 0 4 0;
#X connect 4 0 5 0;
#X connect 5 0 6 0;
#X connect 7 0 12 0;
#X connect 8 0 14 0;
#X connect 9 0 10 0;
#X connect 11 0 1 0;
#X connect 12 0 13 0;
#X connect 13 0 16 0;
#X connect 14 0 15 0;
#X connect 15 0 17 0;
#X restore 403 42 pd messages;
#X obj 27 29 catch~ master.L;
#X obj 180 29 catch~ master.R;
#X obj 27 253 pan_;
#X obj 180 251 pan_;
#X obj 227 174 r \$0-pan.r;
#X obj 64 174 r \$0-pan.l;
#X connect 0 0 18 0;
#X connect 1 0 19 0;
#X connect 2 0 4 0;
#X connect 3 0 1 1;
#X connect 3 0 0 1;
#X connect 4 0 3 0;
#X connect 5 0 10 0;
#X connect 5 1 11 0;
#X connect 6 0 7 0;
#X connect 7 0 18 1;
#X connect 8 0 9 0;
#X connect 9 0 19 1;
#X connect 12 0 0 0;
#X connect 13 0 1 0;
#X connect 14 0 15 0;
#X connect 16 0 0 0;
#X connect 17 0 1 0;
#X connect 18 0 5 0;
#X connect 18 1 5 1;
#X connect 19 0 5 0;
#X connect 19 1 5 1;
#X connect 20 0 8 0;
#X connect 21 0 6 0;
