#N canvas 281 61 874 555 10;
#X obj 463 80 pair_;
#X obj 50 102 channel_mono_;
#X obj 463 237 outlet~;
#X obj 538 237 outlet~;
#X obj 463 29 r \$0-pair-freq;
#X obj 490 54 r \$0-pair-drift;
#X obj 538 79 r \$0-channel;
#X obj 650 31 inlet;
#N canvas 596 173 546 382 messages 0;
#X obj 9 9 inlet;
#X obj 9 36 route freq drift channel;
#X obj 103 69 s \$0-channel;
#X obj 121 -29 loadbang;
#X msg 121 -1 freq 440 \, drift 2;
#X obj 9 117 s \$0-pair-freq.gui.r;
#X obj 56 93 s \$0-pair-drift.gui.r;
#X connect 0 0 1 0;
#X connect 1 0 5 0;
#X connect 1 1 6 0;
#X connect 1 2 2 0;
#X connect 3 0 4 0;
#X connect 4 0 1 0;
#X restore 650 59 pd messages;
#N canvas 558 22 598 543 gui 0;
#X obj 20 22 r \$0-pair-freq.gui;
#X obj 20 422 change;
#X msg 83 378 set \$1;
#X msg 20 451 set \$1;
#X obj 20 56 trigger f f;
#X obj 20 123 s \$0-pair-freq;
#X obj 20 326 r \$0-pair-freq;
#X obj 20 479 s \$0-pair-freq.gui.r;
#X obj 180 422 change;
#X msg 243 378 set \$1;
#X msg 180 451 set \$1;
#X obj 180 56 trigger f f;
#X obj 180 22 r \$0-pair-drift.gui;
#X obj 180 123 s \$0-pair-drift;
#X obj 180 326 r \$0-pair-drift;
#X obj 180 479 s \$0-pair-drift.gui.r;
#X connect 0 0 4 0;
#X connect 1 0 3 0;
#X connect 2 0 1 0;
#X connect 3 0 7 0;
#X connect 4 0 5 0;
#X connect 4 1 2 0;
#X connect 6 0 1 0;
#X connect 8 0 10 0;
#X connect 9 0 8 0;
#X connect 10 0 15 0;
#X connect 11 0 13 0;
#X connect 11 1 9 0;
#X connect 12 0 11 0;
#X connect 14 0 8 0;
#X restore 650 141 pd gui;
#X obj 63 60 hsl 77 16 150 7500 0 0 \$0-pair-freq.gui \$0-pair-freq.gui.r
frequency 7 8 0 10 -262144 -1 -1 1600 1;
#X obj 63 86 hsl 77 16 0 25 0 0 \$0-pair-drift.gui \$0-pair-drift.gui.r
drift 7 8 0 10 -262144 -1 -1 608 1;
#X connect 0 0 1 0;
#X connect 1 0 2 0;
#X connect 1 1 3 0;
#X connect 4 0 0 0;
#X connect 5 0 0 1;
#X connect 6 0 1 1;
#X connect 7 0 8 0;
#X coords 0 -1 1 1 103 113 2 50 50;
