#N canvas 207 289 521 421 10;
#X obj 42 276 osc~;
#X obj 130 276 osc~;
#X obj 91 113 inlet;
#X obj 266 113 inlet;
#X obj 42 217 f;
#X obj 130 217 f;
#X obj 42 237 + 0;
#X obj 130 237 + 0;
#X obj 91 301 *~ 0.5;
#X obj 91 323 outlet~;
#X obj 266 205 * -1;
#X obj 212 186 t b f;
#X obj 365 57 loadbang;
#X msg 365 81 440;
#X msg 400 81 0;
#X obj 91 136 line \$1 1000;
#X obj 266 136 line \$1 1000;
#X connect 0 0 8 0;
#X connect 1 0 8 0;
#X connect 2 0 15 0;
#X connect 3 0 16 0;
#X connect 4 0 6 0;
#X connect 5 0 7 0;
#X connect 6 0 0 0;
#X connect 7 0 1 0;
#X connect 8 0 9 0;
#X connect 10 0 7 1;
#X connect 11 0 5 0;
#X connect 11 0 4 0;
#X connect 11 1 10 0;
#X connect 11 1 6 1;
#X connect 12 0 13 0;
#X connect 12 0 14 0;
#X connect 13 0 15 0;
#X connect 14 0 16 0;
#X connect 15 0 4 0;
#X connect 15 0 5 0;
#X connect 16 0 11 0;
