#N canvas 221 22 1011 844 10;
#X obj 651 435 outlet~;
#X obj 767 435 outlet~;
#X obj 651 383 catch~ \$0-left;
#X obj 767 383 catch~ \$0-right;
#X obj 155 193 throw~ \$0-left;
#X obj 155 220 throw~ \$0-right;
#X obj 278 193 throw~ \$0-left;
#X obj 278 220 throw~ \$0-right;
#X obj 155 70 membrane_;
#X obj 30 37 vsl 16 128 0 1 0 0 \$0-attack.gui \$0-attack.gui.r a 6
-9 0 10 -262144 -1 -1 0 1;
#X obj 56 37 vsl 16 128 0 1 0 0 \$0-decay.gui \$0-decay.gui.r d 6 -9
0 10 -262144 -1 -1 4445 1;
#X obj 82 37 vsl 16 128 0 1 0 0 \$0-sustain.gui \$0-sustain.gui.r s
6 -9 0 10 -262144 -1 -1 11430 1;
#X obj 108 37 vsl 16 128 0 1 0 0 \$0-release.gui \$0-release.gui.r
r 6 -9 0 10 -262144 -1 -1 6350 1;
#X obj 30 178 bng 94 250 10 0 \$0-trigger.gui \$0-trigger.gui.r empty
17 7 0 10 -262144 -1 -1;
#X obj 651 20 inlet;
#N canvas 187 138 747 442 messages 0;
#X obj 25 34 inlet;
#X obj 158 34 inlet;
#X obj 270 -4 loadbang;
#X obj 25 60 s \$0-trigger.gui.r;
#X obj 158 177 s \$0-attack.gui.r;
#X obj 211 158 s \$0-decay.gui.r;
#X obj 265 139 s \$0-sustain.gui.r;
#X obj 318 120 s \$0-release.gui.r;
#X obj 372 101 s \$0-key-number;
#X msg 270 24 attack 0 \, decay 0.35 \, sustain 0.9 \, release 0.5
\, key-number 97;
#X obj 19 285 key;
#X obj 19 311 sel 97;
#X obj 19 364 s \$0-note-on;
#X obj 116 287 keyup;
#X obj 116 314 sel 97;
#X obj 116 366 s \$0-note-off;
#X obj 83 261 r \$0-key-number;
#N canvas 512 261 450 300 note-control 0;
#X msg 173 -114 0;
#X msg 17 -114 1;
#X obj 17 -141 r \$0-note-on;
#X obj 173 -141 r \$0-note-off;
#X obj 32 -14 s \$0-trigger-off-delay;
#X obj 197 -16 s \$0-trigger-off-delay;
#X obj 17 -83 t f f;
#X obj 173 -85 t f f;
#X msg 44 -46 0;
#X msg 200 -48 1;
#X obj 17 20 s \$0-trigger.gui.r;
#X obj 173 20 s \$0-trigger.gui.r;
#X connect 0 0 7 0;
#X connect 1 0 6 0;
#X connect 2 0 1 0;
#X connect 3 0 0 0;
#X connect 6 0 10 0;
#X connect 6 1 8 0;
#X connect 7 0 11 0;
#X connect 7 1 9 0;
#X connect 8 0 4 0;
#X connect 9 0 5 0;
#X restore 20 388 pd note-control;
#X obj 158 61 route attack decay sustain release key-number membrane
;
#X obj 425 81 s \$0-membrane;
#X connect 0 0 3 0;
#X connect 1 0 18 0;
#X connect 2 0 9 0;
#X connect 9 0 18 0;
#X connect 10 0 11 0;
#X connect 11 0 12 0;
#X connect 13 0 14 0;
#X connect 14 0 15 0;
#X connect 16 0 14 1;
#X connect 16 0 11 1;
#X connect 18 0 4 0;
#X connect 18 1 5 0;
#X connect 18 2 6 0;
#X connect 18 3 7 0;
#X connect 18 4 8 0;
#X connect 18 5 19 0;
#X restore 651 46 pd messages;
#N canvas 363 260 395 264 adsr 0;
#X obj 34 26 inlet~;
#X obj 34 207 outlet~;
#X obj 34 180 *~;
#X obj 105 156 c_adsr 1 1 250 90 500;
#X obj 199 95 * 1000;
#X obj 285 139 * 1000;
#X obj 245 117 * 100;
#X obj 154 73 * 2500;
#X obj 285 117 r \$0-release;
#X obj 154 51 r \$0-attack;
#X obj 199 73 r \$0-decay;
#X obj 245 95 r \$0-sustain;
#X obj 105 29 r \$0-trigger;
#X connect 0 0 2 0;
#X connect 2 0 1 0;
#X connect 3 0 2 1;
#X connect 4 0 3 3;
#X connect 5 0 3 5;
#X connect 6 0 3 4;
#X connect 7 0 3 2;
#X connect 8 0 5 0;
#X connect 9 0 7 0;
#X connect 10 0 4 0;
#X connect 11 0 6 0;
#X connect 12 0 3 0;
#X restore 651 408 pd adsr;
#N canvas 101 56 1273 571 gui 0;
#X obj 660 422 change;
#X msg 723 378 set \$1;
#X msg 660 451 set \$1;
#X obj 660 56 trigger f f;
#X obj 820 422 change;
#X msg 883 378 set \$1;
#X msg 820 451 set \$1;
#X obj 820 56 trigger f f;
#X obj 660 22 r \$0-attack.gui;
#X obj 820 22 r \$0-decay.gui;
#X obj 660 123 s \$0-attack;
#X obj 820 123 s \$0-decay;
#X obj 660 326 r \$0-attack;
#X obj 820 326 r \$0-decay;
#X obj 660 479 s \$0-attack.gui.r;
#X obj 820 479 s \$0-decay.gui.r;
#X obj 970 422 change;
#X msg 1033 378 set \$1;
#X msg 970 451 set \$1;
#X obj 970 56 trigger f f;
#X obj 970 22 r \$0-sustain.gui;
#X obj 970 123 s \$0-sustain;
#X obj 970 326 r \$0-sustain;
#X obj 970 479 s \$0-sustain.gui.r;
#X obj 1130 422 change;
#X msg 1193 378 set \$1;
#X msg 1130 451 set \$1;
#X obj 1130 56 trigger f f;
#X obj 1130 22 r \$0-release.gui;
#X obj 1130 123 s \$0-release;
#X obj 1130 326 r \$0-release;
#X obj 1130 479 s \$0-release.gui.r;
#X obj 390 123 s \$0-trigger;
#X obj 390 326 r \$0-trigger;
#X obj 390 479 s \$0-trigger.gui.r;
#X obj 390 70 tgl 15 0 empty empty empty 17 7 0 10 -262144 -1 -1 0
1;
#X obj 390 92 change;
#X obj 390 391 select 1;
#X obj 460 438 delay 100;
#X obj 472 279 * 2500;
#X obj 472 302 moses 1;
#X obj 472 255 r \$0-attack.gui;
#X msg 472 325 20;
#X obj 390 22 r \$0-trigger.gui;
#X obj 528 279 r \$0-trigger-off-delay;
#X obj 529 302 f 1;
#X obj 390 415 spigot;
#X obj 390 353 t f b;
#X connect 0 0 2 0;
#X connect 1 0 0 0;
#X connect 2 0 14 0;
#X connect 3 0 10 0;
#X connect 3 1 1 0;
#X connect 4 0 6 0;
#X connect 5 0 4 0;
#X connect 6 0 15 0;
#X connect 7 0 11 0;
#X connect 7 1 5 0;
#X connect 8 0 3 0;
#X connect 9 0 7 0;
#X connect 12 0 0 0;
#X connect 13 0 4 0;
#X connect 16 0 18 0;
#X connect 17 0 16 0;
#X connect 18 0 23 0;
#X connect 19 0 21 0;
#X connect 19 1 17 0;
#X connect 20 0 19 0;
#X connect 22 0 16 0;
#X connect 24 0 26 0;
#X connect 25 0 24 0;
#X connect 26 0 31 0;
#X connect 27 0 29 0;
#X connect 27 1 25 0;
#X connect 28 0 27 0;
#X connect 30 0 24 0;
#X connect 33 0 47 0;
#X connect 35 0 36 0;
#X connect 36 0 32 0;
#X connect 37 0 46 0;
#X connect 38 0 34 0;
#X connect 39 0 40 0;
#X connect 40 0 42 0;
#X connect 40 1 38 1;
#X connect 41 0 39 0;
#X connect 42 0 38 1;
#X connect 43 0 35 0;
#X connect 44 0 45 1;
#X connect 45 0 46 1;
#X connect 46 0 38 0;
#X connect 47 0 37 0;
#X connect 47 1 45 0;
#X restore 651 72 pd gui;
#N canvas 358 206 955 627 adsr 0;
#X obj 34 26 inlet~;
#X obj 34 207 outlet~;
#X obj 34 180 *~;
#X obj 105 156 c_adsr 1 1 250 90 500;
#X obj 199 95 * 1000;
#X obj 285 139 * 1000;
#X obj 245 117 * 100;
#X obj 154 73 * 2500;
#X obj 285 117 r \$0-release;
#X obj 154 51 r \$0-attack;
#X obj 199 73 r \$0-decay;
#X obj 245 95 r \$0-sustain;
#X obj 105 29 r \$0-trigger;
#X connect 0 0 2 0;
#X connect 2 0 1 0;
#X connect 3 0 2 1;
#X connect 4 0 3 3;
#X connect 5 0 3 5;
#X connect 6 0 3 4;
#X connect 7 0 3 2;
#X connect 8 0 5 0;
#X connect 9 0 7 0;
#X connect 10 0 4 0;
#X connect 11 0 6 0;
#X connect 12 0 3 0;
#X restore 767 408 pd adsr;
#X obj 714 20 inlet;
#X obj 405 193 throw~ \$0-left;
#X obj 405 220 throw~ \$0-right;
#X obj 528 193 throw~ \$0-left;
#X obj 528 220 throw~ \$0-right;
#X obj 405 433 throw~ \$0-left;
#X obj 405 460 throw~ \$0-right;
#X obj 528 433 throw~ \$0-left;
#X obj 528 460 throw~ \$0-right;
#X obj 155 433 throw~ \$0-left;
#X obj 155 460 throw~ \$0-right;
#X obj 278 433 throw~ \$0-left;
#X obj 278 460 throw~ \$0-right;
#X obj 767 460 throw~ master.R;
#X obj 651 460 throw~ master.L;
#X obj 278 70 membrane_;
#X obj 528 70 membrane_;
#X obj 405 70 membrane_;
#X obj 528 310 membrane_;
#X obj 405 310 membrane_;
#X obj 278 310 membrane_;
#X obj 155 310 membrane_;
#X obj 278 43 r \$0-membrane-2;
#X obj 155 43 r \$0-membrane-1;
#X obj 405 43 r \$0-membrane-3;
#X obj 528 43 r \$0-membrane-4;
#X obj 155 283 r \$0-membrane-5;
#X obj 278 283 r \$0-membrane-6;
#X obj 405 283 r \$0-membrane-7;
#X obj 528 283 r \$0-membrane-7;
#X obj 166 14 r \$0-membrane;
#N canvas 439 314 450 300 membrane 0;
#X obj 14 14 inlet;
#X obj 23 193 s \$0-membrane-\$1;
#X obj 109 75 print;
#X obj 117 126 print value;
#X obj 31 120 unpack f s f;
#X connect 0 0 4 0;
#X connect 4 0 2 0;
#X connect 4 1 3 0;
#X restore 652 128 pd membrane;
#X obj 652 107 r \$0-membrane;
#X connect 2 0 16 0;
#X connect 3 0 18 0;
#X connect 8 0 4 0;
#X connect 8 1 5 0;
#X connect 14 0 15 0;
#X connect 16 0 0 0;
#X connect 16 0 33 0;
#X connect 18 0 1 0;
#X connect 18 0 32 0;
#X connect 19 0 15 1;
#X connect 34 0 6 0;
#X connect 34 1 7 0;
#X connect 35 0 22 0;
#X connect 35 1 23 0;
#X connect 36 0 20 0;
#X connect 36 1 21 0;
#X connect 37 0 26 0;
#X connect 37 1 27 0;
#X connect 38 0 24 0;
#X connect 38 1 25 0;
#X connect 39 0 30 0;
#X connect 39 1 31 0;
#X connect 40 0 28 0;
#X connect 40 1 29 0;
#X connect 41 0 34 0;
#X connect 42 0 8 0;
#X connect 43 0 36 0;
#X connect 44 0 35 0;
#X connect 45 0 40 0;
#X connect 46 0 39 0;
#X connect 47 0 38 0;
#X connect 48 0 37 0;
#X connect 49 0 8 0;
#X connect 49 0 34 0;
#X connect 49 0 36 0;
#X connect 49 0 35 0;
#X connect 49 0 40 0;
#X connect 49 0 39 0;
#X connect 49 0 38 0;
#X connect 49 0 37 0;
#X connect 51 0 50 0;
#X coords 0 -1 1 1 114 262 2 20 20;
