#N canvas 113 217 428 352 10;
#X obj 139 254 dac~;
#X floatatom 90 41 5 0 0 0 - - -;
#X floatatom 147 41 5 0 0 0 - - -;
#N canvas 576 174 450 300 oscPair 0;
#X obj 32 216 osc~;
#X obj 120 216 osc~;
#X obj 81 13 inlet;
#X obj 256 13 inlet;
#X obj 32 67 f;
#X obj 120 67 f;
#X obj 32 87 + 0;
#X obj 120 87 + 0;
#X obj 81 241 *~ 0.5;
#X obj 81 263 outlet~;
#X obj 256 55 * -1;
#X floatatom 294 13 5 0 0 0 - - -;
#X obj 202 36 t b f;
#X floatatom 40 113 5 0 0 0 - - -;
#X floatatom 130 113 5 0 0 0 - - -;
#X connect 0 0 8 0;
#X connect 1 0 8 0;
#X connect 2 0 4 0;
#X connect 2 0 5 0;
#X connect 3 0 11 0;
#X connect 3 0 12 0;
#X connect 4 0 6 0;
#X connect 5 0 7 0;
#X connect 6 0 0 0;
#X connect 6 0 13 0;
#X connect 7 0 1 0;
#X connect 7 0 14 0;
#X connect 8 0 9 0;
#X connect 10 0 7 1;
#X connect 12 0 5 0;
#X connect 12 0 4 0;
#X connect 12 1 10 0;
#X connect 12 1 6 1;
#X restore 266 68 pd oscPair;
#X floatatom 266 43 5 0 0 0 - - -;
#X floatatom 323 43 5 0 0 0 - - -;
#X obj 149 219 *~ 0.5;
#N canvas 702 335 450 300 oscPair 0;
#X obj 32 216 osc~;
#X obj 120 216 osc~;
#X obj 81 13 inlet;
#X obj 256 13 inlet;
#X obj 32 67 f;
#X obj 120 67 f;
#X obj 32 87 + 0;
#X obj 120 87 + 0;
#X obj 81 241 *~ 0.5;
#X obj 81 263 outlet~;
#X obj 256 55 * -1;
#X floatatom 294 13 5 0 0 0 - - -;
#X obj 202 36 t b f;
#X floatatom 40 113 5 0 0 0 - - -;
#X floatatom 130 113 5 0 0 0 - - -;
#X connect 0 0 8 0;
#X connect 1 0 8 0;
#X connect 2 0 4 0;
#X connect 2 0 5 0;
#X connect 3 0 11 0;
#X connect 3 0 12 0;
#X connect 4 0 6 0;
#X connect 5 0 7 0;
#X connect 6 0 0 0;
#X connect 6 0 13 0;
#X connect 7 0 1 0;
#X connect 7 0 14 0;
#X connect 8 0 9 0;
#X connect 10 0 7 1;
#X connect 12 0 5 0;
#X connect 12 0 4 0;
#X connect 12 1 10 0;
#X connect 12 1 6 1;
#X restore 90 68 pd oscPair;
#N canvas 595 141 450 300 channel 0;
#X obj -157 60 inlet~;
#X obj -105 23 inlet;
#X msg -105 85 \$1 10;
#X obj -105 109 line~;
#X obj -157 141 *~;
#X obj -157 164 outlet~;
#X text -108 -8 Channel Volume;
#X connect 0 0 4 0;
#X connect 1 0 2 0;
#X connect 2 0 3 0;
#X connect 3 0 4 1;
#X connect 4 0 5 0;
#X restore 90 140 pd channel;
#X obj 183 45 vsl 15 128 0.01 1 1 0 empty empty Volume 0 -9 0 10 -262144
-1 -1 12700 1;
#N canvas 0 22 450 300 channel 0;
#X obj -157 60 inlet~;
#X obj -105 23 inlet;
#X msg -105 85 \$1 10;
#X obj -105 109 line~;
#X obj -157 141 *~;
#X obj -157 164 outlet~;
#X text -108 -8 Channel Volume;
#X connect 0 0 4 0;
#X connect 1 0 2 0;
#X connect 2 0 3 0;
#X connect 3 0 4 1;
#X connect 4 0 5 0;
#X restore 266 140 pd channel;
#X obj 359 45 vsl 15 128 0.01 1 1 0 empty empty Volume 0 -9 0 10 -262144
-1 -1 12700 1;
#X connect 1 0 7 0;
#X connect 2 0 7 1;
#X connect 3 0 10 0;
#X connect 4 0 3 0;
#X connect 5 0 3 1;
#X connect 6 0 0 0;
#X connect 6 0 0 1;
#X connect 7 0 8 0;
#X connect 8 0 6 0;
#X connect 9 0 8 1;
#X connect 10 0 6 0;
#X connect 11 0 10 1;
